<?xml version="1.0" encoding="utf-8"?>
<!-- Generator: Adobe Illustrator 22.0.0, SVG Export Plug-In . SVG Version: 6.00 Build 0)  -->
<svg version="1.1" id="Layer_1" xmlns="http://www.w3.org/2000/svg" xmlns:xlink="http://www.w3.org/1999/xlink" x="0px" y="0px"
	 viewBox="0 0 262.4 32.4" style="enable-background:new 0 0 262.4 32.4;" xml:space="preserve">
<style type="text/css">
	.st0{fill:#3589F5;}
</style>
<g>
	<g>
		<path d="M11.2,19.5c0-1.8-1-2.6-3.2-3.5l-1.2-0.5c-3.3-1.4-5.4-3.2-5.4-6.4c0-3.5,2.9-5.7,7.1-5.7c2.1,0,3.9,0.6,5.3,1.6l-0.2,4.1
			h-2.3l-0.8-4.6l2.2,0.9V7C11.2,5.7,10,5.1,8.5,5.1c-2,0-3.6,1.1-3.6,3.1c0,1.7,1.1,2.7,3.1,3.5l1.3,0.6c3.9,1.6,5.5,3.3,5.5,6.3
			c0,3.6-2.9,5.9-7.5,5.9c-2.3,0-4.6-0.6-6.2-1.6l0.2-4.4h2.3l0.8,4.8l-2.1-0.8V21c1.9,1.2,3,1.8,5,1.8
			C9.7,22.8,11.2,21.5,11.2,19.5z"/>
		<path d="M21.9,18.8c0,2.3,0.7,3,2,3c1.4,0,2.9-1,4.1-2.4h0.9v1.8h-1.8l1-0.7c-1.6,2.5-3.6,3.8-5.8,3.8c-2.5,0-4.1-1.4-4.1-5.4
			l0.1-8l0.8,0.8l-2.7-0.6V9.9l5.3-0.6l0.4,0.3l-0.2,4.2C21.9,13.8,21.9,18.8,21.9,18.8z M27.7,24.2l-0.3-3.5l0.1-9.8l0.8,0.8
			l-2.7-0.6V10l5.2-0.7l0.4,0.3l-0.1,4.2v9.5L29.7,22l3.2,0.7V24L27.7,24.2z"/>
		<path d="M36.8,16c0-1.7,0-2.4-0.1-3.6l-2.1-0.3V11l5-1.9l0.5,0.3l0.2,2.5l0.1,0.3v9.4l-0.1,0.3v2.6c0,2,0,4.2,0.1,6.6h-3.7
			c0.1-2.4,0.1-4.5,0.1-6.6V16z M42.8,29.7V31h-8.1v-1.2l3.1-0.6h1.8L42.8,29.7z M43.3,11.2c-1.4,0-2.8,1.1-4.4,2.7l-0.3-0.5
			c1.7-3,3.7-4.3,6.1-4.3c3.2,0,5.8,2.7,5.8,7.6c0,4.8-2.9,7.7-6.3,7.7c-2.3,0-4-1.2-5.5-4.3l0.3-0.5c1.4,1.8,2.6,2.7,4,2.7
			c2,0,3.6-1.7,3.6-5.4C46.7,13.1,45.3,11.2,43.3,11.2z"/>
		<path d="M66.1,15.2c0,0.7-0.1,1.2-0.2,1.7H54.4v-1.4h6.4c1.4,0,1.8-0.6,1.8-1.7c0-1.9-1.2-3.1-2.7-3.1c-1.6,0-3.3,1.5-3.3,5.8
			c0,3.8,1.9,5.6,4.5,5.6c1.8,0,2.9-0.8,3.9-1.9l0.9,0.8c-1.2,2.3-3.2,3.5-6,3.5c-4.2,0-7.1-2.8-7.1-7.6s3.5-7.7,7.3-7.7
			C63.7,9.1,66.1,11.5,66.1,15.2z"/>
		<path d="M70.3,17.6V16c0-1.7,0-2.4-0.1-3.6L68,12.1V11l5-1.9l0.5,0.3l0.3,3.7v4.5c0,1.9,0,5,0.1,6.3h-3.8
			C70.2,22.6,70.3,19.5,70.3,17.6z M68.3,22.7l3.1-0.6h1.9l3.1,0.6v1.2h-8.1V22.7z M72.2,13.6h2l-0.6,0.5c0.7-3.3,2.7-5,4.5-5
			c1.1,0,2.1,0.6,2.4,1.6c0,1.5-0.7,2.3-1.9,2.3c-0.8,0-1.4-0.4-2.1-1.1L75.7,11l1.3,0.1c-1.5,0.9-2.6,2.4-3.1,4.5l-1.7-0.1
			C72.2,15.5,72.2,13.6,72.2,13.6z"/>
		<path d="M81.8,5.4V3.9h4.5v1.9h-0.4L81.8,5.4z M86.3,22.1V24h-4.5v-1.4l4.2-0.5H86.3z M84.4,13.3c0-3.1,0-6.2-0.1-9.3h4.1
			c-0.1,3-0.1,6.2-0.1,9.3v1.1c0,3.3,0,6.5,0.1,9.6h-4.1c0.1-3,0.1-6.2,0.1-9.6V13.3z M86.3,22.4H90c4.1,0,6.4-3.1,6.4-8.4
			c0-5.5-2.4-8.4-6.3-8.4h-3.9V3.9h4.4c6.1,0,10,3.7,10,10c0,6.4-4.4,10-10.6,10h-3.8v-1.5H86.3z"/>
		<path d="M108.1,18.8c0,2.3,0.7,3,2,3c1.4,0,2.9-1,4.1-2.4h0.9v1.8h-1.8l1-0.7c-1.6,2.5-3.6,3.8-5.8,3.8c-2.5,0-4.1-1.4-4.1-5.4
			l0.1-8l0.8,0.8l-2.7-0.6V9.9l5.3-0.6l0.4,0.3l-0.2,4.2C108.1,13.8,108.1,18.8,108.1,18.8z M113.9,24.2l-0.3-3.5l0.1-9.8l0.8,0.8
			l-2.7-0.6V10l5.2-0.7l0.4,0.3l-0.1,4.2v9.5l-1.4-1.3l3.2,0.7V24L113.9,24.2z"/>
		<path d="M123,16c0-1.7,0-2.4-0.1-3.6l-2.1-0.3V11l5-1.9l0.5,0.3l0.2,2.5l0.1,0.3v9.4l-0.1,0.3v2.6c0,2,0,4.2,0.1,6.6h-3.7
			c0.1-2.4,0.1-4.5,0.1-6.6V16z M128.9,29.7V31h-8.1v-1.2l3.1-0.6h1.8L128.9,29.7z M129.5,11.2c-1.4,0-2.8,1.1-4.4,2.7l-0.3-0.5
			c1.7-3,3.7-4.3,6.1-4.3c3.2,0,5.8,2.7,5.8,7.6c0,4.8-2.9,7.7-6.3,7.7c-2.3,0-4-1.2-5.5-4.3l0.3-0.5c1.4,1.8,2.6,2.7,4,2.7
			c2,0,3.6-1.7,3.6-5.4C132.9,13.1,131.5,11.2,129.5,11.2z"/>
		<path d="M152.2,15.2c0,0.7-0.1,1.2-0.2,1.7h-11.5v-1.4h6.4c1.4,0,1.8-0.6,1.8-1.7c0-1.9-1.2-3.1-2.7-3.1c-1.6,0-3.3,1.5-3.3,5.8
			c0,3.8,1.9,5.6,4.5,5.6c1.8,0,2.9-0.8,3.9-1.9L152,21c-1.2,2.3-3.2,3.5-6,3.5c-4.2,0-7.1-2.8-7.1-7.6s3.5-7.7,7.3-7.7
			C149.9,9.1,152.2,11.5,152.2,15.2z"/>
		<path d="M156.4,17.6V16c0-1.7,0-2.4-0.1-3.6l-2.1-0.3V11l5-1.9l0.5,0.3l0.3,3.7v4.5c0,1.9,0,5,0.1,6.3h-3.8
			C156.4,22.6,156.4,19.5,156.4,17.6z M154.4,22.7l3.1-0.6h1.9l3.1,0.6v1.2h-8.1V22.7z M158.3,13.6h2l-0.6,0.5c0.7-3.3,2.7-5,4.5-5
			c1.1,0,2.1,0.6,2.4,1.6c0,1.5-0.7,2.3-1.9,2.3c-0.8,0-1.4-0.4-2.1-1.1l-0.8-0.9l1.3,0.1c-1.5,0.9-2.6,2.4-3.1,4.5l-1.7-0.1
			L158.3,13.6L158.3,13.6z"/>
		<path class="st0" d="M167.6,6.1V4.3h5.1v2.2h-0.5L167.6,6.1z M172.7,21.7v2.2h-5.1v-1.8l4.6-0.5L172.7,21.7L172.7,21.7z
			 M169.7,13.6c0-3.1,0-6.2-0.1-9.3h6.2c-0.1,3-0.1,6.2-0.1,9.3v0.9c0,3.1,0,6.3,0.1,9.4h-6.2c0.1-3,0.1-6.2,0.1-9.3V13.6z
			 M179.7,4.3l2.5,1.8h-9.5V4.3h10.5l0.2,5.1h-2.8L179.7,4.3z M179.3,14.7h-6.6v-1.9h6.6V14.7z M184,18.8l-0.2,5.1h-11.1v-1.7h10.1
			l-2.5,1.7l0.9-5.1H184z M178.4,13.4l0.5-2.8h1.9v6.2h-1.9l-0.5-2.9V13.4z"/>
		<path class="st0" d="M186.9,11.2l-2.7-0.5V9.3h9.1v1.4l-2.4,0.5H186.9z M191.1,9.3l3.6,10.1l-2.3,3.9l4.7-14.1h2.3l-5.6,14.7h-2.7
			L185,9.3H191.1z M197.2,11.1l-2.3-0.5V9.3h5.7v1.4l-2.6,0.5L197.2,11.1L197.2,11.1z"/>
		<path class="st0" d="M202.9,23.9c0.1-1.4,0.1-4.5,0.1-6.3v-1.4c0-1.7,0-2.6-0.1-3.8l-1.6-0.3v-1.2l7-2.1l0.5,0.3l-0.1,4.5v4
			c0,1.9,0,5,0.1,6.3C208.8,23.9,202.9,23.9,202.9,23.9z M210,22.4v1.5h-8.4v-1.5l2.6-0.6h2.9L210,22.4z M203,4.4
			c0-1.5,1.2-2.6,2.8-2.6s2.8,1.1,2.8,2.6S207.3,7,205.8,7S203,5.9,203,4.4z"/>
		<path class="st0" d="M218.1,2.2l0.5,0.3l-0.1,4.2v10.9c0,2.1,0,4.2,0.1,6.3h-5.9c0.1-2.1,0.1-4.2,0.1-6.3V5.2l-1.6-0.3V3.6
			L218.1,2.2z M219.9,22.4v1.5h-8.6v-1.5l2.7-0.6h2.9L219.9,22.4z"/>
		<path d="M237.5,21v1.6l-1.9,0.4l0.9-4.6h2.1l-0.1,4.5c-1.8,1-3.9,1.5-6.2,1.5c-5.9,0-10.3-3.9-10.3-10.5s4.7-10.5,10.4-10.5
			c2,0,3.9,0.4,5.9,1.5l0.1,4.5h-2.1l-0.9-4.6l1.9,0.4V7c-1.6-1.4-3-2-4.4-2c-3.6,0-6.7,2.9-6.7,8.9s2.8,8.9,6.5,8.9
			C234.2,22.8,235.9,22.3,237.5,21z"/>
		<path d="M240.6,16.7c0-4.8,3.4-7.6,7.3-7.6c3.9,0,7.3,2.8,7.3,7.6c0,4.9-3.2,7.6-7.3,7.6C243.8,24.4,240.6,21.5,240.6,16.7z
			 M251.2,16.8c0-4.2-1.2-6.2-3.3-6.2c-2.2,0-3.3,2-3.3,6.2s1.2,6.1,3.3,6.1S251.2,20.9,251.2,16.8z"/>
		<path d="M258.4,22c0-1.3,1.1-2.5,2.4-2.5c1.4,0,2.4,1.1,2.4,2.5c0,1.3-1.1,2.4-2.4,2.4S258.4,23.3,258.4,22z"/>
	</g>
</g>
</svg>
